HIERARCHY
ROOT Hips
{
	OFFSET 0.000000 0.000000 0.000000
	CHANNELS 6 Xposition Yposition Zposition Xrotation Yrotation Zrotation
	JOINT LeftUpLeg_virtual
	{
		OFFSET 0.000000 0.000000 0.000000
		CHANNELS 3 Xrotation Yrotation Zrotation
		JOINT LeftUpLeg
		{
			OFFSET 13.026900 -6.336304 -1.092800
			CHANNELS 3 Xrotation Yrotation Zrotation
			JOINT LeftLeg
			{
				OFFSET 0.524474 -46.096886 9.782700
				CHANNELS 3 Xrotation Yrotation Zrotation
				JOINT LeftFoot
				{
					OFFSET -0.524474 -53.427422 -12.948200
					CHANNELS 3 Xrotation Yrotation Zrotation
					JOINT LeftToeBase
					{
						OFFSET 0.192200 -14.009700 16.364100
						CHANNELS 3 Xrotation Yrotation Zrotation
						JOINT LeftToe_End
						{
							OFFSET -1.784700 -0.561700 9.474800
							CHANNELS 3 Xrotation Yrotation Zrotation
							End Site
							{
								OFFSET 0 0 0
							}
						}
					}
				}
			}
		}
	}
	JOINT RightUpLeg_virtual
	{
		OFFSET 0.000000 0.000000 0.000000
		CHANNELS 3 Xrotation Yrotation Zrotation
		JOINT RightUpLeg
		{
			OFFSET -12.883000 -6.336304 -1.092800
			CHANNELS 3 Xrotation Yrotation Zrotation
			JOINT RightLeg
			{
				OFFSET -0.524587 -46.096825 9.782800
				CHANNELS 3 Xrotation Yrotation Zrotation
				JOINT RightFoot
				{
					OFFSET 0.524587 -53.427383 -12.948300
					CHANNELS 3 Xrotation Yrotation Zrotation
					JOINT RightToeBase
					{
						OFFSET -0.192200 -14.009700 16.364100
						CHANNELS 3 Xrotation Yrotation Zrotation
						JOINT RightToe_End
						{
							OFFSET 1.784700 -0.561700 9.474800
							CHANNELS 3 Xrotation Yrotation Zrotation
							End Site
							{
								OFFSET 0 0 0
							}
						}
					}
				}
			}
		}
	}
	JOINT Spine_virtual
	{
		OFFSET 0.000000 0.000000 0.000000
		CHANNELS 3 Xrotation Yrotation Zrotation
		JOINT Spine
		{
			OFFSET 0.072000 7.257294 -0.789700
			CHANNELS 3 Xrotation Yrotation Zrotation
			JOINT Spine1
			{
				OFFSET 0.000000 12.508769 -0.658067
				CHANNELS 3 Xrotation Yrotation Zrotation
				JOINT Spine1_split
				{
					OFFSET 0.000000 12.508769 -0.658067
					CHANNELS 3 Xrotation Yrotation Zrotation
					JOINT Spine2
					{
						OFFSET 0.000000 12.508769 -0.658067
						CHANNELS 3 Xrotation Yrotation Zrotation
						JOINT Neck_virtual
						{
							OFFSET 0.000000 0.000000 0.000000
							CHANNELS 3 Xrotation Yrotation Zrotation
							JOINT Neck
							{
								OFFSET 0.000000 14.033295 7.520400
								CHANNELS 3 Xrotation Yrotation Zrotation
								JOINT Head
								{
									OFFSET 0.000000 8.198502 5.703100
									CHANNELS 3 Xrotation Yrotation Zrotation
									JOINT HeadTop_End
									{
										OFFSET 0.000000 17.760803 13.332701
										CHANNELS 3 Xrotation Yrotation Zrotation
										End Site
										{
											OFFSET 0 0 0
										}
									}
								}
							}
						}
						JOINT LeftShoulder_virtual
						{
							OFFSET 0.000000 0.000000 0.000000
							CHANNELS 3 Xrotation Yrotation Zrotation
							JOINT LeftShoulder
							{
								OFFSET 6.292450 5.785301 -0.669000
								CHANNELS 3 Xrotation Yrotation Zrotation
								JOINT LeftShoulder_split
								{
									OFFSET 6.292450 5.785301 -0.669000
									CHANNELS 3 Xrotation Yrotation Zrotation
									JOINT LeftArm
									{
										OFFSET 13.907140 -6.093903 1.965100
										CHANNELS 3 Xrotation Yrotation Zrotation
										JOINT LeftForeArm
										{
											OFFSET 34.140198 0.000000 0.000000
											CHANNELS 3 Xrotation Yrotation Zrotation
											JOINT LeftHand
											{
												OFFSET 40.960209 0.000000 0.000000
												CHANNELS 3 Xrotation Yrotation Zrotation
												End Site
												{
													OFFSET 0 0 0
												}
											}
										}
									}
								}
							}
						}
						JOINT RightShoulder_virtual
						{
							OFFSET 0.000000 0.000000 0.000000
							CHANNELS 3 Xrotation Yrotation Zrotation
							JOINT RightShoulder
							{
								OFFSET -6.292450 5.785301 -0.669000
								CHANNELS 3 Xrotation Yrotation Zrotation
								JOINT RightShoulder_split
								{
									OFFSET -6.292450 5.785301 -0.669000
									CHANNELS 3 Xrotation Yrotation Zrotation
									JOINT RightArm
									{
										OFFSET -13.907140 -6.093903 1.965100
										CHANNELS 3 Xrotation Yrotation Zrotation
										JOINT RightForeArm
										{
											OFFSET -34.140198 0.000000 0.000000
											CHANNELS 3 Xrotation Yrotation Zrotation
											JOINT RightHand
											{
												OFFSET -40.960209 0.000000 0.000000
												CHANNELS 3 Xrotation Yrotation Zrotation
												End Site
												{
													OFFSET 0 0 0
												}
											}
										}
									}
								}
							}
						}
					}
				}
			}
		}
	}
}
MOTION
Frames: 4
Frame Time: 0.03333333
-0.995647 104.696655 9.217281 0.000000 0.000000 0.000000 -15.008374 -0.801488 -5.147163 -32.694251 22.698071 8.542873 40.293301 -7.531294 10.059293 1.706888 -7.635381 0.719060 -2.703165 0.082347 -0.905881 0.000000 0.000000 0.000000 -14.530794 -0.131046 -5.209063 -24.081097 -32.456086 -1.137831 35.464494 8.092584 -9.751947 4.023361 9.304368 -6.934898 -3.514394 -0.015715 -0.333273 0.000000 0.000000 0.000000 -14.789660 -1.381585 -5.791450 5.088234 -1.422535 2.454105 13.678046 -0.787540 -0.526663 0.506238 2.290245 -0.418505 0.000000 0.000000 0.000000 12.158906 -0.264709 -0.718493 12.024638 0.803829 0.993626 -2.495666 0.544875 2.979273 0.000000 0.000000 0.000000 12.503683 -0.124933 -0.814162 0.838697 6.725363 -10.209838 -1.974365 -2.638194 -0.606641 65.836733 -67.175826 -4.518570 0.268267 -26.973062 1.259197 0.000000 0.000000 0.000000 12.622692 -0.314179 -0.807737 1.376854 -1.493075 11.745360 6.266856 0.639302 -2.446672 6.601800 35.980036 57.795169 -0.932580 28.066598 0.397815 0.000000 0.000000 0.000000 
-1.009611 104.709076 9.235191 0.000000 0.000000 0.000000 -14.999099 -0.786672 -5.150260 -32.698643 22.707346 8.543738 40.287540 -7.528666 10.062817 1.717323 -7.631831 0.721988 -2.702887 0.082209 -0.905391 0.000000 0.000000 0.000000 -14.521815 -0.120863 -5.212199 -24.077738 -32.449860 -1.135541 35.448654 8.098321 -9.751982 4.030131 9.319731 -6.921835 -3.533449 -0.016894 -0.331839 0.000000 0.000000 0.000000 -14.775475 -1.364751 -5.792221 5.080049 -1.419753 2.455784 13.677997 -0.786806 -0.529389 0.504816 2.284624 -0.420884 0.000000 0.000000 0.000000 12.163440 -0.264548 -0.721518 12.030711 0.804131 0.992514 -2.508835 0.552574 2.976419 0.000000 0.000000 0.000000 12.506257 -0.124359 -0.814763 0.837007 6.711769 -10.207569 -1.984905 -2.629691 -0.596796 65.803798 -67.141456 -4.538977 0.255738 -26.976051 1.244313 0.000000 0.000000 0.000000 12.619468 -0.315725 -0.809376 1.376730 -1.498873 11.745119 6.275182 0.635458 -2.443268 6.589621 35.991152 57.803932 -0.934715 28.086141 0.399708 0.000000 0.000000 0.000000 
-1.024120 104.727455 9.250015 0.000000 0.000000 0.000000 -14.984100 -0.746611 -5.155257 -32.703707 22.699104 8.540267 40.270413 -7.535530 10.070065 1.734806 -7.635515 0.724035 -2.705209 0.081526 -0.902634 0.000000 0.000000 0.000000 -14.506627 -0.096783 -5.218708 -24.065934 -32.474537 -1.138165 35.415275 8.105312 -9.748131 4.033679 9.346271 -6.917171 -3.530237 -0.015831 -0.328609 0.000000 0.000000 0.000000 -14.753839 -1.333245 -5.795498 5.076362 -1.417925 2.462041 13.676077 -0.791394 -0.532148 0.509274 2.283721 -0.421017 0.000000 0.000000 0.000000 12.166752 -0.269576 -0.725394 12.025713 0.805127 1.007949 -2.533032 0.585171 2.961426 0.000000 0.000000 0.000000 12.507334 -0.129440 -0.815168 0.834938 6.705724 -10.200934 -1.987892 -2.637361 -0.587480 65.555240 -67.122892 -4.757713 0.244650 -26.946083 1.231816 0.000000 0.000000 0.000000 12.614434 -0.322829 -0.811631 1.377929 -1.505085 11.736260 6.281766 0.638524 -2.438001 6.578717 35.998157 57.815468 -0.933302 28.107789 0.401736 0.000000 0.000000 0.000000 
-1.035976 104.743813 9.262028 0.000000 0.000000 0.000000 -14.967412 -0.688273 -5.160672 -32.710821 22.677140 8.533262 40.250189 -7.545632 10.078320 1.755763 -7.641990 0.731523 -2.708651 0.080389 -0.898738 0.000000 0.000000 0.000000 -14.490135 -0.057092 -5.226880 -24.050939 -32.526215 -1.147438 35.372160 8.111662 -9.741404 4.032550 9.377150 -6.921123 -3.512056 -0.012330 -0.324490 0.000000 0.000000 0.000000 -14.731419 -1.288383 -5.799766 5.078212 -1.417836 2.471234 13.672958 -0.800550 -0.534346 0.512753 2.288959 -0.423182 0.000000 0.000000 0.000000 12.170382 -0.279103 -0.728764 12.009607 0.807409 1.037667 -2.565230 0.640648 2.934264 0.000000 0.000000 0.000000 12.506862 -0.139269 -0.814654 0.832212 6.708333 -10.189259 -1.986548 -2.652389 -0.579035 65.108280 -67.124695 -5.166190 0.236874 -26.895803 1.224145 0.000000 0.000000 0.000000 12.608638 -0.334693 -0.813778 1.380713 -1.509968 11.719445 6.288204 0.652653 -2.431824 6.572574 36.003208 57.826588 -0.928720 28.126509 0.404110 0.000000 0.000000 0.000000 
